<?xml version="1.0" standalone="no"?>
<!DOCTYPE svg PUBLIC "-//W3C//DTD SVG 20010904//EN"
 "http://www.w3.org/TR/2001/REC-SVG-20010904/DTD/svg10.dtd">
<svg version="1.0" xmlns="http://www.w3.org/2000/svg"
 width="260.000000pt" height="260.000000pt" viewBox="0 0 260.000000 260.000000"
 preserveAspectRatio="xMidYMid meet">
<metadata>
Created by potrace 1.14, written by Peter Selinger 2001-2017
</metadata>
<g transform="translate(0.000000,260.000000) scale(0.100000,-0.100000)"
fill="#000000" stroke="none">
<path d="M335 2542 c-2 -2 -17 -5 -32 -7 -41 -3 -73 -15 -73 -26 0 -6 -5 -7
-10 -4 -6 3 -13 -1 -16 -9 -3 -9 -9 -14 -14 -11 -8 5 -65 -63 -65 -77 0 -5 -4
-12 -10 -16 -13 -9 -18 -29 -19 -69 -1 -17 -5 -29 -9 -26 -5 3 -7 -3 -6 -13 2
-11 0 -25 -5 -33 -6 -9 -5 -12 1 -8 6 4 10 -9 11 -31 1 -20 6 -38 12 -40 6 -2
8 -8 5 -13 -17 -26 84 -141 141 -159 19 -6 32 -16 29 -21 -8 -12 2 -11 25 1
12 7 21 7 25 0 8 -12 84 -10 92 3 3 5 9 3 14 -4 7 -11 9 -11 9 1 0 16 36 20
58 6 7 -4 12 -4 12 -1 0 3 6 0 14 -7 8 -7 12 -16 9 -21 -2 -4 12 -5 32 -2 21
2 33 0 30 -5 -4 -6 -1 -10 4 -10 10 0 16 22 12 43 -1 5 4 5 11 1 16 -9 -7 22
-38 51 l-20 21 22 42 c12 23 17 40 11 36 -7 -3 -4 1 5 8 9 8 18 32 20 54 2 21
8 42 13 46 6 5 5 8 -3 8 -10 0 -10 5 -1 21 8 16 8 20 0 14 -8 -4 -10 2 -7 19
3 15 0 26 -6 26 -6 0 -8 3 -5 7 4 3 2 12 -4 20 -9 10 -8 13 2 13 10 1 10 4 -3
13 -9 8 -18 20 -20 28 -2 8 -15 26 -30 41 -14 14 -23 30 -20 34 4 4 2 4 -4 1
-7 -4 -17 0 -24 8 -7 8 -18 15 -25 15 -7 0 -18 7 -25 15 -11 13 -15 13 -21 3
-7 -10 -9 -10 -9 1 0 7 -6 11 -15 7 -8 -3 -15 0 -15 6 0 7 -5 6 -15 -2 -8 -7
-15 -8 -15 -3 0 10 -26 14 -35 5z m55 -124 c0 -5 6 -8 13 -6 14 3 65 -43 69
-64 2 -7 7 -16 11 -19 8 -6 12 -45 8 -97 -1 -23 -28 -28 -42 -8 -4 5 -15 5
-25 1 -11 -5 -22 -9 -26 -10 -5 -2 -11 -4 -15 -5 -5 -1 -11 -2 -15 -1 -7 1 0
-26 12 -44 3 -5 11 -23 18 -38 9 -22 9 -27 -1 -26 -6 1 -19 -1 -28 -5 -8 -4
-29 -1 -45 5 -16 7 -33 11 -39 10 -5 -2 -7 0 -3 4 8 9 -14 35 -24 28 -5 -2 -8
5 -8 16 0 12 -5 21 -11 21 -5 0 -7 5 -4 10 3 6 0 10 -7 10 -9 0 -9 3 2 10 8 5
11 10 5 10 -11 0 -13 65 -2 76 12 12 8 26 -5 19 -7 -4 -4 1 6 9 11 9 16 16 12
16 -5 0 -3 6 3 13 6 8 9 17 6 20 -3 4 -2 5 1 3 3 -3 17 7 31 20 16 16 33 24
44 21 11 -3 21 -2 24 2 6 11 35 10 35 -1z"/>
<path d="M1905 2542 c-11 -3 -31 -9 -45 -14 -14 -5 -26 -9 -28 -8 -1 0 -15
-12 -30 -27 -32 -32 -44 -57 -48 -93 -1 -14 -3 -27 -4 -30 -6 -15 3 -69 16
-101 16 -36 74 -79 108 -79 9 0 16 -4 16 -10 0 -5 8 -10 18 -10 11 0 28 -8 38
-17 21 -20 32 -73 14 -73 -6 0 -9 -4 -6 -9 3 -5 -7 -14 -24 -19 -20 -8 -32 -8
-36 0 -4 6 -9 5 -15 -3 -7 -11 -9 -11 -9 -1 0 7 -4 10 -10 7 -5 -3 -10 -1 -10
4 0 6 -9 11 -20 11 -11 0 -20 7 -20 15 0 23 -28 18 -42 -7 -7 -13 -11 -26 -10
-30 1 -5 -3 -8 -9 -8 -5 0 -7 -4 -4 -10 3 -5 2 -10 -2 -10 -5 0 -9 -13 -8 -28
0 -23 4 -28 17 -24 10 2 18 -1 18 -7 0 -7 5 -9 10 -6 6 3 10 1 10 -5 0 -7 7
-10 15 -6 8 3 15 1 15 -5 0 -6 5 -7 12 -3 6 4 17 -1 25 -11 7 -11 13 -14 13
-9 0 5 21 9 48 9 31 -1 51 4 60 14 11 13 12 13 6 1 -7 -13 -5 -13 9 -2 9 8 20
11 26 8 5 -3 12 1 15 10 3 8 11 12 17 8 7 -4 9 -3 5 4 -3 6 5 23 19 38 14 15
25 38 25 50 0 13 5 24 10 24 7 0 7 7 -1 21 -8 15 -8 19 0 15 6 -4 11 -3 11 3
0 5 -6 12 -12 14 -10 4 -10 6 0 6 9 1 8 9 -5 28 -11 17 -13 24 -5 19 11 -7 12
-4 3 13 -7 11 -16 21 -22 21 -6 0 -7 5 -4 10 3 6 1 10 -4 10 -6 0 -11 7 -11
15 0 9 -6 12 -15 9 -8 -4 -15 -1 -15 6 0 6 -4 8 -10 5 -5 -3 -10 -1 -10 6 0 6
-8 9 -19 6 -15 -3 -18 -1 -14 11 5 11 2 14 -10 9 -9 -3 -28 3 -43 16 -16 12
-24 15 -19 8 5 -9 4 -12 -2 -8 -14 9 -23 57 -10 57 6 0 8 3 4 6 -3 4 0 12 6
19 16 15 100 12 105 -4 2 -6 13 -11 23 -11 11 0 17 5 14 10 -3 6 -1 10 5 10 6
0 9 4 6 9 -4 5 -1 11 4 13 6 2 12 13 13 26 0 12 4 22 7 22 4 0 7 7 7 15 0 9
-6 14 -13 11 -7 -3 -24 4 -38 15 -16 12 -26 16 -26 9 0 -8 -4 -9 -12 -3 -7 5
-20 9 -28 8 -8 0 -18 4 -22 10 -5 6 -8 4 -8 -5 0 -9 -3 -11 -8 -5 -4 6 -16 9
-27 7z"/>
<path d="M1392 2533 c-6 -3 -9 -9 -6 -15 3 -5 -4 -4 -15 4 -17 10 -23 10 -29
1 -6 -9 -9 -537 -3 -577 0 -4 10 -6 21 -3 11 3 20 1 20 -5 0 -5 5 -6 12 -2 16
10 68 11 68 1 0 -5 5 -5 12 -1 16 10 68 11 68 1 0 -5 6 -5 12 0 7 4 25 6 41 4
36 -3 43 14 38 105 -1 19 -7 21 -83 20 -77 -1 -81 0 -85 22 -1 13 1 21 6 18
10 -7 9 13 -2 30 -11 19 37 45 63 34 16 -6 60 -4 60 3 0 4 4 6 9 2 5 -3 12 -1
16 5 4 6 11 7 17 4 6 -4 6 2 -1 15 -7 11 -8 21 -4 21 4 0 1 5 -7 10 -10 6 -11
10 -3 10 7 0 12 11 11 25 -2 18 -8 25 -23 25 -17 0 -18 2 -5 11 12 9 11 10 -5
4 -39 -13 -65 -15 -65 -5 0 5 -5 10 -11 10 -5 0 -8 -3 -6 -7 3 -5 -6 -9 -19
-9 -13 -1 -21 2 -18 7 3 5 2 9 -3 9 -4 0 -8 16 -8 35 0 21 5 35 12 35 7 0 10
7 6 15 -6 17 17 17 30 0 4 -6 11 -4 17 5 8 12 10 12 10 1 0 -11 3 -11 17 0 18
16 23 16 33 -1 6 -10 12 -10 26 1 17 13 23 60 14 104 -1 6 -2 13 -2 16 1 10
-32 7 -47 -5 -12 -9 -13 -8 -6 3 6 11 4 13 -8 8 -9 -3 -19 -2 -22 3 -3 5 -15
6 -28 1 -12 -4 -28 -6 -36 -3 -7 2 -17 -2 -22 -9 -7 -11 -9 -11 -9 -1 0 7 -5
10 -10 7 -6 -4 -16 -2 -23 3 -7 5 -18 7 -25 5z"/>
<path d="M2184 2531 c4 -6 3 -11 -2 -11 -5 0 -9 -6 -10 -12 -1 -7 -3 -28 -5
-45 -2 -19 1 -33 7 -33 6 0 4 -5 -4 -10 -13 -8 -12 -10 3 -10 9 0 17 -5 17
-11 0 -8 4 -8 14 0 11 9 15 9 19 -1 4 -10 6 -10 6 1 1 11 4 11 18 0 15 -12 16
-12 8 1 -6 10 -2 9 12 -3 21 -19 24 -32 10 -54 -5 -8 -3 -13 3 -13 8 0 7 -6
-1 -21 -9 -17 -8 -20 3 -13 11 6 11 5 -1 -9 -11 -14 -11 -17 0 -17 10 0 10 -3
1 -12 -7 -7 -8 -17 -2 -29 7 -12 6 -20 0 -24 -8 -5 -7 -11 1 -21 8 -10 8 -14
0 -14 -6 0 -11 -5 -11 -11 0 -5 6 -7 13 -3 8 5 8 2 -2 -9 -11 -14 -11 -17 0
-17 11 0 11 -2 -1 -10 -13 -9 -13 -10 0 -10 13 0 13 -1 0 -10 -12 -8 -12 -10
-1 -10 11 0 11 -3 1 -15 -10 -12 -10 -15 0 -15 9 0 10 -3 1 -13 -8 -10 -7 -17
1 -25 9 -9 9 -12 -1 -12 -10 0 -11 -3 -3 -13 7 -8 7 -18 2 -27 -11 -18 -3 -31
15 -23 9 3 15 -1 15 -8 0 -11 3 -11 10 1 6 10 10 11 10 3 0 -9 7 -10 27 -2 20
7 28 6 35 -3 6 -11 8 -11 8 0 0 7 3 11 8 8 4 -2 7 97 7 220 0 123 3 224 8 224
4 0 6 4 3 8 -2 4 6 8 20 8 13 0 24 -3 24 -7 0 -4 17 -1 37 6 35 12 38 16 38
54 0 27 -6 46 -17 56 -10 8 -18 11 -18 7 0 -4 -5 0 -10 8 -5 8 -10 10 -10 4 0
-7 -13 -10 -32 -8 -18 2 -35 -1 -40 -8 -6 -10 -8 -10 -8 -1 0 7 -6 10 -14 7
-8 -3 -17 0 -21 6 -5 8 -14 6 -32 -5 -14 -10 -23 -12 -19 -7 8 14 -34 12 -53
-2 -11 -8 -13 -8 -8 0 4 7 -3 14 -18 16 -13 3 -22 1 -19 -3 7 -12 -3 -11 -28
2 -15 8 -19 8 -14 0z"/>
<path d="M765 2517 c-22 -13 -30 -47 -11 -47 6 0 4 -5 -4 -10 -8 -5 -10 -10
-4 -10 8 0 9 -13 4 -40 -4 -22 -4 -43 1 -46 4 -2 4 -16 -1 -29 -7 -18 -6 -25
3 -25 8 0 7 -4 -3 -10 -8 -5 -10 -10 -4 -10 8 0 9 -13 4 -39 -4 -25 -3 -44 3
-50 7 -7 7 -11 1 -11 -13 0 -5 -70 10 -89 8 -11 8 -13 -1 -7 -18 10 -16 1 3
-18 8 -9 11 -16 5 -16 -6 0 -1 -16 10 -35 12 -19 25 -35 30 -35 5 0 9 -7 9
-16 0 -8 5 -12 10 -9 6 3 13 -1 16 -9 3 -9 9 -14 13 -11 6 3 53 -16 65 -27 1
-2 11 4 21 12 11 8 16 10 12 3 -4 -6 -3 -14 3 -18 5 -3 10 -2 10 4 0 7 8 7 26
1 17 -7 23 -7 19 1 -4 6 -1 10 6 8 26 -3 40 1 35 10 -3 4 6 7 20 5 15 -1 33 5
44 16 10 10 21 16 24 13 3 -4 6 1 6 10 0 10 5 17 11 17 5 0 7 5 4 10 -3 6 1
10 9 10 10 0 13 7 10 26 -3 18 -1 23 7 18 9 -5 10 -1 7 14 -4 12 -3 20 1 17 4
-2 8 91 9 208 0 214 -2 226 -36 227 -8 0 -10 -5 -6 -12 5 -9 2 -9 -9 1 -14 11
-20 11 -34 0 -10 -8 -14 -9 -10 -2 5 8 0 11 -13 10 -11 -1 -21 -5 -21 -9 -1
-4 -2 -14 -3 -20 -1 -7 3 -19 8 -27 8 -11 8 -13 -1 -8 -9 6 -11 -2 -9 -28 1
-19 -2 -35 -7 -35 -4 0 -1 -7 7 -16 18 -18 20 -30 6 -39 -14 -9 -12 -45 3 -45
8 0 8 -3 2 -8 -6 -4 -12 -20 -13 -37 -1 -23 1 -26 8 -15 6 9 10 10 10 3 0 -6
-5 -15 -11 -18 -5 -4 -8 -26 -6 -51 2 -24 0 -44 -5 -44 -5 0 -7 -4 -4 -8 6
-10 -28 -64 -36 -56 -4 3 -19 -3 -34 -13 -16 -10 -25 -12 -20 -5 5 9 3 13 -5
11 -8 -1 -19 -1 -25 0 -13 1 -56 37 -55 45 1 3 1 7 0 9 -1 1 -2 70 -3 152 0
83 -5 156 -10 164 -6 9 -5 12 1 8 7 -4 10 7 8 31 -5 70 -3 66 -22 51 -11 -10
-14 -10 -9 -1 4 6 3 12 -1 12 -5 0 -15 -6 -22 -12 -11 -10 -13 -10 -7 0 9 15
-31 15 -59 -1z"/>
<path d="M150 2056 c0 -2 8 -10 18 -17 15 -13 16 -12 3 4 -13 16 -21 21 -21
13z"/>
<path d="M620 1959 c0 -5 5 -7 10 -4 6 3 10 8 10 11 0 2 -4 4 -10 4 -5 0 -10
-5 -10 -11z"/>
<path d="M935 1890 c-3 -6 -10 -8 -15 -5 -5 3 -12 0 -16 -6 -5 -8 -3 -9 6 -4
8 5 11 3 8 -6 -3 -8 -11 -13 -18 -11 -11 3 -11 0 0 -12 7 -9 19 -16 27 -16 11
0 13 -12 11 -47 -2 -32 -7 -47 -15 -45 -7 1 -12 -1 -12 -5 3 -21 -2 -44 -9
-39 -5 3 -9 -1 -9 -9 0 -8 4 -12 8 -9 5 2 6 -14 4 -36 -2 -22 0 -38 4 -35 5 3
7 -4 4 -15 -3 -11 -9 -18 -12 -15 -4 2 -8 -2 -8 -10 0 -8 3 -12 7 -10 3 2 6
-21 6 -51 0 -40 5 -59 18 -72 11 -9 16 -11 12 -4 -6 9 -1 11 18 8 14 -3 30 -7
34 -10 20 -12 44 33 40 74 -3 39 -2 41 22 38 14 -1 31 2 39 6 10 7 12 5 6 -3
-5 -10 -2 -10 13 0 19 12 37 69 21 69 -4 0 -5 9 -2 20 3 11 10 20 15 20 5 0 7
4 4 9 -3 5 17 19 44 32 28 13 50 26 50 29 0 10 150 2 164 -9 7 -6 16 -8 19 -4
4 3 7 1 7 -5 0 -7 6 -12 13 -12 16 0 68 -74 70 -100 1 -11 4 -20 7 -20 12 0
11 -112 -1 -126 -9 -11 -9 -14 1 -14 10 0 10 -3 0 -15 -7 -8 -10 -15 -6 -15 6
0 -15 -62 -37 -110 -7 -14 -18 -30 -26 -36 -8 -6 -11 -16 -7 -22 3 -6 -2 -15
-11 -21 -10 -6 -14 -11 -8 -11 5 0 -1 -7 -13 -16 -12 -8 -22 -21 -22 -27 0 -7
-15 -27 -34 -45 -32 -30 -34 -30 -39 -11 -3 12 -10 18 -16 14 -6 -3 -11 -2
-11 4 0 7 -8 7 -23 2 -13 -5 -30 -5 -38 0 -23 12 -56 -15 -63 -54 l-6 -34
-130 2 c-72 2 -130 0 -131 -4 -5 -36 -5 -51 0 -52 3 -1 56 -2 118 -3 61 -1
115 -5 119 -9 4 -3 2 -13 -5 -21 -9 -11 -9 -15 1 -19 10 -4 10 -6 -1 -6 -10
-1 -11 -4 -2 -14 8 -10 7 -14 -4 -14 -8 0 -15 4 -15 9 0 5 -9 4 -19 -2 -13 -7
-22 -7 -26 0 -4 6 -13 7 -23 1 -10 -5 -24 -6 -33 -1 -8 5 -21 5 -29 0 -8 -5
-22 -5 -32 1 -12 6 -18 6 -18 0 0 -6 -6 -8 -14 -5 -16 6 -26 -24 -26 -81 1
-43 23 -95 34 -77 3 6 18 9 32 6 19 -3 24 -1 18 8 -6 10 -5 11 7 1 12 -10 18
-10 29 0 8 7 10 8 7 1 -8 -14 150 -13 172 1 10 5 12 4 7 -3 -4 -7 -1 -12 9
-12 10 0 14 5 9 13 -5 9 -4 9 6 0 11 -10 17 -10 29 0 12 10 13 9 6 -2 -8 -14
14 -13 60 4 16 5 17 5 5 -4 -11 -8 -5 -10 26 -7 22 1 46 6 54 11 9 5 11 4 6
-3 -7 -12 31 -11 69 3 16 5 17 5 5 -4 -11 -8 -5 -10 26 -7 22 1 46 6 54 11 9
5 11 4 6 -3 -8 -13 42 -11 64 3 9 5 11 4 6 -4 -5 -8 2 -11 23 -9 16 1 28 5 25
9 -2 4 0 10 4 13 11 6 9 107 -2 125 -4 7 -14 10 -22 7 -8 -3 -14 0 -14 7 0 8
-4 6 -10 -3 -5 -8 -10 -10 -10 -4 0 8 -13 9 -40 4 -22 -4 -40 -4 -40 1 0 5
-11 5 -23 0 -13 -5 -30 -5 -37 -1 -8 5 -18 6 -23 3 -18 -11 -59 -10 -64 3 -2
7 12 29 32 50 20 20 53 62 73 93 19 31 39 59 44 62 5 3 10 15 11 27 0 12 7 24
14 26 7 3 13 15 13 26 0 11 6 23 14 26 7 3 13 15 12 27 -1 12 2 25 6 28 5 3
15 30 24 60 17 58 27 282 13 273 -5 -3 -9 4 -9 15 0 11 -5 23 -10 26 -6 4 -8
10 -5 15 3 5 -1 15 -9 23 -8 8 -13 17 -10 19 2 3 -23 33 -56 67 -33 34 -60 59
-60 56 0 -3 -16 4 -37 15 -20 10 -39 17 -43 15 -4 -3 -13 2 -20 10 -10 12 -16
13 -26 4 -11 -9 -14 -8 -14 2 0 9 -3 10 -8 4 -4 -5 -20 -11 -37 -12 -16 0 -43
-4 -59 -7 -16 -4 -34 -8 -40 -9 -6 -1 -13 -4 -16 -7 -3 -3 -22 -14 -44 -25
-21 -11 -48 -30 -60 -42 -11 -13 -26 -23 -33 -23 -6 0 -15 -9 -18 -20 -8 -24
-21 -26 -29 -4 -3 8 -10 12 -16 9 -5 -3 -10 -1 -10 4 0 6 4 11 9 11 4 0 5 18
1 40 -5 25 -3 43 3 47 6 3 7 1 3 -5 -4 -7 -2 -12 3 -12 11 0 14 7 14 35 0 31
-4 34 -30 31 -16 -1 -33 1 -40 6 -6 5 -14 5 -18 -2z"/>
<path d="M177 655 c-18 -18 -31 -20 -21 -3 4 6 3 8 -3 5 -11 -7 -9 -129 2
-147 3 -5 0 -12 -6 -16 -8 -5 -9 -3 -4 6 5 8 4 11 -3 6 -15 -9 -3 -38 12 -29
6 3 3 -3 -7 -14 -10 -12 -14 -24 -9 -27 14 -9 21 -56 9 -63 -6 -4 -7 -1 -2 7
5 8 4 11 -3 6 -15 -9 -3 -38 12 -29 6 3 3 -3 -7 -14 -10 -12 -14 -24 -9 -27
14 -9 21 -56 9 -63 -6 -4 -7 -1 -2 7 5 9 4 11 -4 6 -9 -6 -9 -11 0 -23 10 -12
10 -16 -2 -24 -8 -5 -9 -9 -3 -9 8 0 11 -23 10 -67 l-1 -68 138 -5 c75 -3 137
-1 137 3 0 5 5 5 10 2 12 -7 12 -7 16 63 1 31 -1 50 -7 47 -5 -4 -9 -2 -9 2 0
5 -31 8 -69 7 -63 -1 -70 1 -80 22 -6 13 -6 24 -1 24 5 0 5 12 0 30 -5 17 -5
30 -1 30 3 0 7 9 7 20 0 11 -4 20 -9 20 -5 0 -4 6 2 13 6 8 8 17 4 21 -9 9
-11 46 -3 46 4 0 5 12 3 28 -7 51 -8 92 -3 92 3 0 6 9 6 20 0 11 -4 20 -9 20
-5 0 -4 6 2 13 6 8 8 17 4 21 -4 4 -8 15 -8 24 0 13 -7 16 -28 14 -15 -2 -34
1 -41 8 -11 8 -18 7 -29 -5z"/>
<path d="M615 660 c-6 -9 -4 -11 6 -5 8 5 10 4 6 0 -10 -11 -39 -16 -32 -5 8
13 -75 4 -88 -10 -8 -9 -8 -11 -1 -7 8 5 11 -2 10 -18 0 -14 -5 -25 -10 -25
-5 0 -2 -7 5 -17 16 -19 16 -23 -3 -34 -7 -5 -8 -9 -2 -9 10 0 11 -57 0 -67
-3 -4 -1 -12 5 -20 9 -10 8 -13 0 -13 -7 0 -9 -5 -4 -12 12 -21 12 -38 0 -38
-8 0 -7 -3 1 -9 17 -11 17 -21 0 -32 -9 -6 -10 -9 -1 -9 9 0 10 -7 2 -26 -8
-24 -8 -25 6 -14 13 11 14 10 9 -4 -3 -9 -10 -16 -16 -16 -5 0 -6 -6 -1 -12
11 -18 10 -32 -2 -40 -7 -5 -7 -8 1 -8 10 0 11 -57 0 -67 -3 -4 -1 -12 5 -20
9 -9 8 -13 0 -13 -8 0 -8 -6 1 -20 12 -18 24 -20 157 -20 l143 0 -4 30 c-3 16
-1 30 4 30 4 0 8 -5 8 -12 0 -6 3 -8 6 -5 4 4 1 13 -6 22 -7 8 -10 24 -7 35 6
22 8 22 -93 23 l-65 1 -5 41 c-6 45 -2 67 11 59 5 -3 9 0 9 7 0 8 5 7 17 -2
15 -12 16 -12 8 1 -7 12 -6 13 6 5 12 -9 34 -11 88 -6 7 1 11 7 7 16 -3 8 -2
15 2 15 12 0 4 82 -9 94 -9 8 -10 8 -5 -1 5 -9 0 -10 -21 -3 -15 5 -39 9 -53
8 -62 -1 -66 1 -64 30 8 84 6 80 36 71 15 -4 28 -4 28 0 0 9 42 7 58 -3 7 -4
12 -2 12 6 0 9 3 9 10 -2 7 -11 10 -11 10 -2 0 7 4 11 8 8 10 -6 9 30 0 40 -4
3 -3 17 2 30 6 15 6 26 -1 30 -8 4 -7 9 2 15 9 5 1 7 -21 4 -19 -2 -41 1 -49
8 -10 8 -13 8 -8 1 4 -7 -3 -14 -17 -16 -19 -4 -23 -1 -19 11 5 13 3 13 -7 4
-7 -6 -19 -9 -26 -6 -8 3 -14 -1 -14 -8 0 -8 -5 -6 -13 6 -11 14 -16 15 -22 5z"/>
<path d="M1105 660 c-3 -5 -17 -10 -31 -10 -14 0 -23 -4 -19 -9 3 -5 1 -12 -5
-16 -6 -4 -8 -10 -5 -15 3 -5 -2 -15 -10 -23 -11 -12 -12 -17 -2 -20 9 -4 9
-6 0 -6 -7 -1 -13 -10 -13 -21 0 -11 -4 -20 -8 -20 -5 0 -8 -13 -7 -30 1 -16
-1 -30 -4 -30 -3 0 -12 -9 -19 -21 -11 -17 -11 -20 0 -14 10 6 11 5 1 -6 -7
-7 -13 -21 -13 -31 0 -10 -4 -18 -8 -18 -4 0 -9 -12 -10 -26 -1 -15 -8 -34
-15 -42 -10 -13 -9 -15 3 -8 9 4 8 2 -2 -7 -10 -8 -15 -17 -11 -20 3 -4 -2
-18 -11 -32 -10 -15 -15 -33 -12 -41 3 -8 1 -14 -5 -14 -6 0 -9 -7 -5 -15 3
-8 2 -15 -2 -15 -4 0 -13 -18 -18 -39 -10 -35 -9 -40 8 -44 10 -3 18 -2 18 2
0 4 7 8 15 8 8 0 15 -5 15 -11 0 -6 5 -4 10 4 6 9 10 10 10 3 0 -9 8 -9 30 -2
16 6 27 15 24 20 -3 5 0 9 7 9 6 0 9 8 6 20 -3 11 -1 20 5 20 6 0 8 6 5 14 -4
11 15 14 98 15 l104 2 15 -30 c12 -23 13 -31 3 -34 -7 -3 -5 -6 6 -6 9 -1 16
-7 15 -13 -3 -14 100 -29 108 -16 3 5 9 6 14 3 5 -3 11 -1 15 5 3 5 1 10 -4
10 -6 0 -11 13 -11 29 0 16 -5 31 -11 33 -6 2 -11 16 -11 30 0 15 -7 29 -15
32 -8 3 -11 10 -8 16 3 5 3 16 -2 22 -4 7 -8 18 -9 23 0 6 -2 16 -2 23 -1 7
-6 11 -11 8 -4 -3 -7 10 -6 29 1 19 -2 32 -7 29 -4 -3 -8 -2 -9 3 -1 8 -4 28
-10 53 -2 8 -7 17 -11 20 -3 3 -8 19 -10 35 -2 17 -10 36 -18 43 -13 12 -13
13 0 6 13 -7 13 -5 1 9 -7 9 -10 17 -6 17 4 0 2 7 -5 15 -6 8 -8 20 -4 26 4 7
3 10 -2 6 -5 -3 -14 6 -21 19 -6 13 -7 22 -2 18 5 -3 6 2 3 10 -5 12 -11 13
-25 6 -15 -9 -18 -8 -12 7 5 14 3 15 -7 6 -7 -6 -19 -9 -26 -6 -8 3 -14 0 -14
-7 0 -6 -5 -8 -10 -5 -6 4 -8 11 -5 16 4 5 4 9 1 9 -3 0 -8 -4 -11 -10z m39
-201 c-2 -4 3 -15 12 -23 8 -9 11 -16 5 -16 -6 0 -4 -15 5 -36 8 -20 13 -39
10 -42 -3 -3 2 -11 12 -18 9 -7 12 -14 5 -14 -6 0 -9 -9 -6 -22 3 -17 2 -19
-5 -9 -7 9 -12 10 -16 2 -5 -7 -13 -8 -24 -2 -10 6 -23 6 -33 0 -20 -10 -50
18 -32 29 5 4 9 15 7 25 -1 9 2 17 8 17 6 0 4 7 -3 17 -8 9 -9 14 -2 10 13 -8
28 27 18 42 -3 6 3 14 12 20 11 6 13 11 5 11 -18 0 -6 17 12 17 8 0 13 -4 10
-8z"/>
<path d="M1524 659 c-3 -6 -15 -9 -25 -6 -10 3 -22 0 -26 -6 -10 -16 -10 -77
-1 -83 5 -3 5 -11 1 -17 -11 -19 -11 -47 1 -47 7 0 8 -3 1 -8 -6 -4 -11 -20
-11 -37 0 -16 5 -33 11 -37 6 -5 6 -8 0 -8 -6 0 -10 -30 -10 -69 0 -39 4 -67
9 -63 5 3 5 -1 0 -9 -12 -20 -16 -51 -5 -44 6 3 7 -6 3 -22 -6 -24 -7 -74 -3
-120 1 -18 117 -18 128 0 12 18 11 57 -2 57 -5 0 -4 4 4 9 9 6 10 10 2 16 -9
5 -9 10 -1 20 8 9 8 15 0 20 -7 4 -7 12 0 25 7 13 6 20 -2 22 -7 3 -3 7 8 10
14 4 25 -1 33 -14 10 -16 10 -19 0 -12 -7 4 0 -9 15 -29 16 -20 25 -37 20 -37
-4 0 0 -6 11 -13 10 -8 15 -18 12 -24 -3 -5 3 -16 14 -23 10 -8 19 -20 19 -28
0 -7 5 -10 10 -7 6 3 10 3 10 -2 0 -4 31 -7 70 -5 53 3 70 7 70 18 0 8 -7 17
-15 20 -8 4 -12 10 -9 15 3 5 1 9 -3 9 -5 0 -17 15 -27 32 -11 18 -28 43 -38
55 -12 12 -17 27 -13 34 5 7 4 10 -2 6 -6 -4 -17 0 -24 9 -13 16 -20 54 -10
52 12 -2 47 17 66 35 11 11 13 16 5 12 -8 -4 -5 2 7 14 12 12 20 28 17 36 -4
8 -2 15 2 15 11 0 10 52 0 68 -4 7 -2 12 4 12 6 0 4 10 -6 25 -9 14 -12 25 -8
25 5 0 0 7 -11 16 -11 8 -19 17 -17 20 5 8 -25 33 -32 27 -3 -4 -6 -1 -6 6 0
7 -4 10 -9 6 -5 -3 -16 1 -24 9 -11 11 -17 12 -27 3 -9 -8 -11 -9 -6 0 4 8
-18 10 -84 7 -57 -2 -89 0 -85 6 3 6 4 10 1 10 -3 0 -8 -5 -12 -11z m127 -125
c8 -5 9 -3 4 6 -8 14 -4 12 43 -18 16 -10 19 -18 12 -27 -5 -6 -7 -15 -3 -19
15 -15 10 -56 -9 -61 -10 -4 -18 -11 -18 -17 0 -5 -7 -8 -15 -4 -8 3 -15 1
-15 -4 0 -5 -13 -5 -30 1 -27 10 -42 29 -22 29 5 0 9 7 9 15 0 8 -4 15 -9 15
-5 0 -6 6 -1 13 11 17 11 30 0 45 -6 8 -5 12 3 12 10 0 10 3 0 15 -12 14 -10
15 13 11 15 -2 32 -8 38 -12z"/>
<path d="M2006 661 c-4 -5 -12 -8 -19 -5 -7 2 -18 -5 -25 -16 -8 -14 -9 -20
-1 -20 8 0 8 -4 0 -14 -8 -9 -8 -16 -2 -20 5 -4 7 -16 4 -29 -6 -26 -6 -40 -1
-90 3 -21 1 -40 -3 -43 -8 -5 -7 -24 4 -41 4 -6 3 -15 -3 -18 -7 -4 -7 -11 -2
-18 5 -7 7 -21 5 -32 -5 -22 -5 -33 -3 -85 1 -19 1 -37 0 -40 -7 -20 -7 -41 1
-46 5 -3 5 -13 -1 -24 -7 -13 -7 -21 0 -25 6 -4 8 -11 4 -16 -4 -6 19 -9 61
-7 l68 3 2 32 c2 18 -1 31 -5 28 -4 -2 -4 13 0 35 4 24 3 43 -4 51 -8 9 -7 10
6 6 12 -4 15 -2 11 8 -3 8 -8 13 -12 11 -4 -3 -7 4 -7 14 0 12 5 16 16 12 12
-5 13 -3 3 9 -13 17 -16 112 -2 103 5 -3 9 0 9 7 0 7 9 3 20 -9 11 -12 20 -26
20 -32 0 -5 5 -10 10 -10 6 0 10 -6 10 -13 0 -7 9 -19 19 -27 11 -7 18 -17 15
-22 -3 -4 0 -8 7 -8 7 0 10 -3 6 -6 -3 -3 7 -20 23 -38 17 -17 30 -37 30 -43
0 -7 5 -13 11 -13 5 0 7 -4 4 -10 -3 -5 1 -10 9 -10 9 0 16 -5 16 -11 0 -6 9
-24 20 -39 17 -23 29 -29 70 -32 28 -1 50 0 50 4 0 4 6 5 14 2 8 -3 17 -1 21
5 3 6 1 11 -5 11 -7 0 -5 7 4 16 18 17 21 28 6 19 -14 -9 -12 8 3 24 8 10 8
12 0 7 -6 -3 -14 -2 -18 4 -3 5 1 10 9 10 9 0 16 5 16 11 0 5 -4 7 -10 4 -5
-3 -10 3 -10 14 0 11 5 23 11 26 7 5 4 14 -8 28 -10 11 -13 17 -7 14 7 -4 15
0 18 9 3 8 2 12 -4 9 -14 -9 -12 8 3 24 8 10 8 12 0 7 -6 -3 -14 -2 -18 4 -3
5 1 10 9 10 9 0 16 5 16 11 0 5 -4 7 -10 4 -5 -3 -10 3 -10 14 0 11 5 23 11
26 7 5 4 14 -8 28 -10 11 -13 17 -7 14 7 -4 15 0 18 9 3 8 2 12 -4 9 -14 -9
-12 8 3 24 8 10 8 12 0 7 -6 -3 -14 -2 -18 4 -3 5 1 10 9 10 9 0 16 5 16 11 0
5 -4 7 -10 4 -5 -3 -10 3 -10 14 0 11 5 23 11 26 7 5 4 14 -8 28 -10 11 -13
17 -7 14 7 -4 15 0 18 9 4 9 2 13 -5 8 -8 -4 -9 1 -4 16 6 17 4 21 -6 14 -11
-6 -12 -5 -2 7 10 12 8 15 -8 16 -12 1 -17 -2 -12 -10 3 -7 -4 -3 -17 8 -13
11 -20 15 -17 8 4 -6 3 -14 -3 -18 -5 -3 -10 -1 -10 4 0 14 -48 10 -53 -4 -3
-5 -4 -74 -3 -153 1 -87 -3 -143 -9 -145 -18 -7 -44 5 -50 22 -2 9 -16 28 -30
44 -14 15 -23 27 -18 27 4 0 -2 7 -13 15 -10 8 -15 15 -11 15 5 0 2 6 -5 14
-29 30 -48 57 -48 66 0 6 -4 10 -10 10 -5 0 -10 7 -10 15 0 8 -5 15 -11 15 -5
0 -7 5 -4 10 3 6 0 10 -8 10 -16 0 -30 27 -22 41 4 5 -1 6 -10 3 -8 -4 -23 0
-32 7 -12 10 -15 10 -9 2 9 -16 -16 -17 -31 -2 -7 7 -13 7 -17 0z"/>
</g>
</svg>
